<svg width="664" height="126" viewBox="0 0 664 126" fill="none" xmlns="http://www.w3.org/2000/svg">
<path d="M90.952 0.855713L68.8525 28.376H76.2815L90.952 10.2243L105.646 28.376H113.075L90.952 0.855713ZM284.36 17.7L259.248 53.0453H266.723L266.725 53.0434H301.997L301.999 53.0453H309.474L284.36 17.7ZM545.866 19.3801L522.248 52.577H530.169L545.866 30.6884L561.541 52.577H569.485L545.866 19.3801ZM90.952 25.5016L68.8525 53.0219H76.2815L90.952 34.8702L105.646 53.0219H113.075L90.952 25.5016ZM284.36 28.2121L297.286 46.4106H271.436L284.36 28.2121ZM386.984 28.936V36.3415H424.735V28.936H386.984ZM386.984 45.2183V52.6004H424.735V45.2183H386.984Z" fill="#3F865D"/>
<path d="M633.727 65.2844C624.92 65.2844 617.606 68.4862 611.836 74.8872C606.58 80.704 603.964 87.5722 603.964 95.4683C603.964 103.434 606.721 110.418 612.258 116.399C617.818 122.356 624.99 125.322 633.727 125.322C642.44 125.322 649.542 122.356 655.079 116.399C655.37 116.086 655.647 115.77 655.922 115.452V125.629H663.421V65.38H655.922V75.2755C655.796 75.1308 655.675 74.9837 655.545 74.8403C649.775 68.4627 642.511 65.2844 633.727 65.2844ZM26.6614 65.38C17.8308 65.38 10.5194 68.58 4.72581 74.9808C3.16061 76.7096 1.85272 78.5075 0.754737 80.4232L7.24896 84.2791C8.2535 82.5504 9.46737 80.9152 10.9625 79.3968C15.3544 74.8646 20.6109 72.5982 26.6848 72.5982C32.8055 72.5982 38.0621 74.8646 42.454 79.3968C46.0252 83.082 48.1443 87.3991 48.8116 92.3383H29.5338V98.7623H48.8682C48.5039 101.828 47.5599 104.73 46.0289 107.454C44.0199 111.05 41.3102 113.83 37.8994 115.792C34.4887 117.731 30.7495 118.69 26.6614 118.69C22.5731 118.69 18.836 117.731 15.4253 115.792C12.0145 113.806 9.30486 111.027 7.29579 107.454C7.17899 107.29 7.08482 107.102 6.99138 106.915L0.59082 110.513C1.82896 112.708 3.37002 114.788 5.1922 116.75C10.7522 122.73 17.9009 125.721 26.6614 125.721C35.4452 125.721 42.6409 122.73 48.2242 116.75C53.7843 110.722 56.5645 103.715 56.5645 95.7025C56.5645 87.7597 53.9254 80.8679 48.6457 75.0277C42.8522 68.6033 35.5152 65.38 26.6614 65.38ZM68.8524 65.38V125.629H76.2813V100.14L78.5937 98.0851L106.091 125.629H116.509L84.0381 93.5306L113.051 65.38H102.797L76.2813 91.427V65.38H68.8524ZM148.844 65.38C139.967 65.38 132.631 68.6033 126.861 75.0277C121.581 80.8679 118.941 87.7597 118.941 95.7025C118.941 103.715 121.722 110.745 127.281 116.75C132.865 122.73 140.06 125.721 148.844 125.721C157.604 125.721 164.751 122.73 170.311 116.75C175.894 110.722 178.698 103.715 178.698 95.7025C178.698 87.7363 176.059 80.8211 170.779 74.9808C164.985 68.58 157.674 65.38 148.844 65.38ZM259.247 65.38V125.629H266.489V125.518L266.511 125.533L302.088 77.7615V125.629H309.33V65.38H302.088V65.382L266.489 113.181V65.38H259.247ZM351.548 65.38C342.694 65.38 335.358 68.6033 329.564 75.0277C324.285 80.8679 321.645 87.7597 321.645 95.7025C321.645 103.715 324.425 110.722 329.985 116.75C335.569 122.73 342.764 125.721 351.548 125.721C360.308 125.721 367.457 122.73 373.017 116.75C374.84 114.788 376.381 112.708 377.619 110.513L371.218 106.915C371.124 107.102 371.03 107.29 370.914 107.454C368.905 111.027 366.194 113.806 362.784 115.792C359.373 117.731 355.637 118.69 351.548 118.69C347.46 118.69 343.721 117.731 340.31 115.792C336.899 113.83 334.19 111.05 332.181 107.454C330.171 103.879 329.168 100.001 329.168 95.843C329.168 89.4187 331.363 83.9288 335.756 79.3968C340.147 74.8646 345.402 72.5982 351.523 72.5982C357.597 72.5982 362.855 74.8646 367.247 79.3968C368.742 80.9152 369.957 82.5504 370.961 84.2791L377.455 80.4232C376.357 78.5075 375.048 76.7096 373.484 74.9808C367.69 68.58 360.378 65.38 351.548 65.38ZM386.983 65.38V71.7571H402.122V125.486H409.549V71.7571H424.735V65.38H386.983ZM462.676 65.38C453.823 65.38 446.487 68.6033 440.74 75.0042C435.46 80.8445 432.822 87.7363 432.822 95.6791C432.822 103.692 435.602 110.723 441.162 116.727C446.745 122.707 453.942 125.697 462.725 125.697C471.485 125.697 478.632 122.707 484.192 116.727C486.131 114.625 487.744 112.43 489.006 110.094L482.582 106.496C482.418 106.822 482.254 107.15 482.067 107.454C480.058 111.05 477.347 113.83 473.937 115.792C470.526 117.731 466.79 118.69 462.701 118.69C458.613 118.69 454.874 117.731 451.463 115.792C448.052 113.806 445.343 111.05 443.334 107.454C441.325 103.856 440.321 100.001 440.321 95.843C440.321 95.7407 440.326 95.6405 440.327 95.5386H491.504H492.534C492.487 87.6426 489.847 80.7744 484.613 74.9808C478.82 68.58 471.507 65.38 462.676 65.38ZM522.271 65.38L500.266 125.231H508.069L526.004 76.7078L541.895 125.231H542.012L541.988 125.301H549.79L565.746 76.7L583.806 125.348H591.632L569.464 65.38H569.462H561.541L545.868 113.411L530.214 65.38H530.192H522.271ZM220.866 65.4035C212.011 65.4035 204.676 68.6267 198.883 75.0511C193.603 80.8913 190.963 87.7831 190.963 95.7259C190.963 103.738 193.743 110.746 199.303 116.773C204.887 122.753 212.081 125.744 220.866 125.744C229.626 125.744 236.773 122.753 242.333 116.773C244.155 114.81 245.698 112.732 246.936 110.537L240.536 106.939C240.442 107.125 240.348 107.312 240.231 107.475C238.222 111.05 235.513 113.829 232.102 115.815C228.691 117.755 224.954 118.713 220.866 118.713C216.777 118.713 213.039 117.755 209.628 115.815C206.217 113.853 203.507 111.073 201.498 107.475C199.489 103.901 198.485 100.023 198.485 95.8645C198.485 89.4402 200.681 83.9503 205.073 79.4183C209.465 74.8862 214.722 72.6216 220.842 72.6216C226.916 72.6216 232.172 74.8862 236.565 79.4183C238.036 80.9367 239.274 82.5719 240.278 84.3006L246.772 80.4466C245.697 78.531 244.366 76.733 242.801 75.0042C237.007 68.6033 229.696 65.4035 220.866 65.4035ZM633.727 72.4811C639.778 72.4811 644.987 74.7242 649.332 79.2563C653.514 83.5266 655.702 88.6565 655.922 94.6253V96.3367C655.814 100.202 654.824 103.802 652.952 107.171C650.967 110.746 648.257 113.504 644.869 115.466C641.482 117.405 637.769 118.362 633.703 118.362C629.662 118.362 625.923 117.381 622.536 115.466C619.148 113.504 616.438 110.746 614.453 107.171C612.467 103.597 611.464 99.7672 611.464 95.6322C611.464 89.2314 613.66 83.765 618.028 79.2563C622.42 74.7475 627.629 72.4811 633.727 72.4811ZM148.844 72.5982C154.917 72.5982 160.149 74.8646 164.611 79.3968C169.026 83.9288 171.246 89.4187 171.246 95.843C171.246 100.001 170.242 103.879 168.233 107.454C166.224 111.05 163.514 113.83 160.103 115.792C156.692 117.731 152.954 118.69 148.865 118.69C144.778 118.69 141.039 117.731 137.629 115.792C134.218 113.806 131.509 111.027 129.5 107.454C127.49 103.856 126.487 100.001 126.487 95.843C126.487 89.4187 128.682 83.9288 133.075 79.3968C137.467 74.8646 142.723 72.5982 148.844 72.5982ZM462.676 72.5982C468.773 72.5982 474.008 74.8646 478.4 79.3968C481.187 82.2586 483.094 85.497 484.126 89.1146H441.22C442.243 85.4983 444.137 82.2564 446.909 79.3968C451.3 74.8646 456.555 72.5982 462.676 72.5982Z" fill="#252525"/>
</svg>
