<svg width="75" height="75" viewBox="0 0 75 75" fill="none" xmlns="http://www.w3.org/2000/svg">
<path d="M27.7542 29.714C31.0635 24.4676 34.6368 23.2234 40.9441 23.2234C43.9025 23.2234 46.4855 24.2899 49.2755 25.0074C50.9316 25.4332 52.5084 26.1147 53.7164 27.3227C55.1331 28.7394 56.1366 30.5318 56.6201 32.4658C57.4476 35.776 58.5115 39.3223 58.8216 42.733C59.3552 48.6032 59.5059 55.3525 55.1018 59.7565C48.9816 65.8768 39.1776 61.5191 32.4608 59.1682C23.9338 56.1837 17.7798 50.8727 17.1833 41.3286C16.935 37.3558 16.7007 32.8277 18.1892 29.1067C19.548 25.7096 21.7021 23.1266 24.2622 20.5665C30.4932 14.3355 40.666 14 48.9339 14" stroke="#3F865D" stroke-width="3" stroke-linecap="round"/>
<path d="M44.5244 51.5293C44.5244 51.8027 44.4652 51.9941 44.3467 52.1035C44.2373 52.2038 44.0459 52.2539 43.7725 52.2539H40.9561C40.6826 52.2539 40.4867 52.2038 40.3682 52.1035C40.2588 51.9941 40.2041 51.8027 40.2041 51.5293V37.2148L38.3037 38.1719C38.1214 38.2721 37.9574 38.3132 37.8115 38.2949C37.529 38.2493 37.2191 38.1764 36.8818 38.0762C36.5537 37.9759 36.1891 37.8392 35.7881 37.666C35.6514 37.584 35.5693 37.5111 35.542 37.4473C35.5055 37.3835 35.5055 37.2786 35.542 37.1328C35.7516 36.3307 36.0023 35.6745 36.2939 35.1641C36.3851 35.0365 36.5173 34.9316 36.6904 34.8496L41.9131 32.2109H44.5244V51.5293Z" fill="#3F865D"/>
</svg>
