<svg width="117" height="112" viewBox="0 0 117 112" fill="none" xmlns="http://www.w3.org/2000/svg">
<g clip-path="url(#clip0_27_2100)">
<path d="M40.0543 85.1188C40.2973 87.8391 41.0254 90.4108 41.0065 93.1566C41.3186 90.6223 47.9187 87.4144 47.5771 84.8596C47.0876 81.2006 45.0013 77.3427 43.023 74.1395C41.1055 71.0348 38.4913 68.0528 38.0213 64.409C37.748 62.29 37.3261 59.8419 36.6772 57.7911C36.2366 56.3991 36.3587 53.894 36.9828 52.5677C38.186 50.0108 39.0261 47.6724 41.0232 45.4231C42.1988 44.0991 42.9607 43.0047 44.4935 41.9274C47.1072 40.0901 49.8697 38.3357 53.0999 37.4727C54.8035 37.0176 56.472 36.4502 58.2905 36.5638C60.071 36.6751 61.8996 36.9277 63.6644 37.1986C65.2496 37.442 68.2471 38.0066 69.4668 39.1565C70.4146 40.0502 70.8504 41.1028 71.5101 42.1518C73.1073 44.6904 75.2236 46.8082 76.9262 49.3019C78.9171 52.218 79.8624 55.7453 80.7712 59.0242C81.1055 60.2306 80.9996 62.6697 80.1987 63.6723C78.8793 65.3235 77.2742 66.2284 75.3545 67.1552C74.5554 67.5413 73.8426 68.4364 73.173 69.0018C72.6734 69.4236 72.1491 69.765 71.7165 70.2503C68.7424 73.5881 64.4431 76.1019 62.4969 80.1747C61.6799 81.8835 60.9029 83.6104 60.403 85.4226C59.979 86.9572 59.747 88.6365 58.9124 89.9821C58.374 90.8502 58.0656 92.8125 56.6488 92.6883C55.5516 92.5921 54.4636 92.4154 53.3632 92.3369C51.9484 92.2361 50.5505 92.4891 49.1606 92.3754C47.6559 92.2525 46.1796 92.2129 44.6674 92.0314C43.9402 91.944 42.5252 91.4026 42.4208 92.2506C42.3117 93.1361 42.4365 94.5592 41.9234 95.31C41.6477 95.7133 40.2996 96.451 41.0902 96.8836C43.0276 97.9447 45.1835 97.9623 47.4258 98.2319L63.0213 100.106C63.8863 100.21 65.043 100.733 65.1608 99.7755L65.5209 96.8516C65.7457 95.028 65.9919 93.0971 66.5267 91.332C66.8743 90.1836 67.4151 89.1102 67.7968 87.9737C68.1214 87.0063 68.2538 85.961 68.7367 85.0433C69.5385 83.5191 70.7964 82.0683 71.4328 80.4873C71.8846 79.3643 72.7195 78.346 73.7105 77.5655C74.9645 76.5784 76.1543 75.5389 77.5853 74.7052C79.1875 73.7721 81.0163 73.0189 82.6773 72.1433C83.8379 71.532 85.0269 70.7128 86.0396 69.9171C86.7468 69.3616 87.8839 68.7102 88.3108 67.9296C89.1048 66.4787 89.246 64.6479 89.4422 63.0547C89.9892 58.6139 89.1125 54.3268 87.2732 50.1105C85.5458 46.1508 84.0826 42.1548 81.8405 38.3934C79.924 35.1789 76.3645 34.3027 72.8773 32.8168C70.003 31.5922 67.2855 30.607 64.1706 30.0535C61.4767 29.5748 58.7145 29.3545 55.9977 29.0281C54.6899 28.8709 52.2772 28.1209 50.9909 28.6439C48.565 29.6302 46.6247 32.177 44.6323 33.749C43.1549 34.9147 41.8721 36.2469 40.5571 37.5526C39.4683 38.6336 38.1392 39.518 37.0906 40.625C33.5317 44.3819 30.7553 49.4591 30.147 54.3983C29.7167 57.8918 29.9641 61.6152 31.1787 65.0215C31.5735 66.1285 31.7494 67.4813 32.7298 68.2944C33.7072 69.1052 34.2733 70.336 35.0243 71.309C37.0387 73.9189 37.6852 76.905 38.853 79.7902C39.5655 81.5507 39.889 83.2679 40.0543 85.1188Z" fill="#88BE49"/>
<path d="M50.9842 87.1929C54.6612 87.4185 59.0367 87.8969 62.6058 88.8298C62.6647 87.8699 62.8393 86.9341 62.8982 85.9726L63.0559 83.4021C63.0758 83.0769 62.9326 82.9692 62.5891 82.9371C59.9378 82.6867 57.2579 82.6101 54.6003 82.4471C53.451 82.3766 51.796 81.9148 50.812 82.5611C50.2491 82.9306 50.349 84.3187 50.2254 84.8935C50.0928 85.5122 49.7842 86.3095 49.9888 86.9455C50.0933 87.2694 50.7085 87.176 50.9842 87.1929Z" fill="#88BE49"/>
<path d="M44.4339 105.406C50.4332 105.774 57.5804 106.422 63.4308 107.495C63.4897 106.535 63.7382 105.604 63.7972 104.643L63.9549 102.072C63.9748 101.747 63.7373 101.633 63.176 101.588C58.8472 101.235 54.4777 101.054 50.1418 100.789C48.267 100.674 45.5528 100.147 43.9742 100.757C43.0717 101.105 43.2879 102.5 43.109 103.072C42.9167 103.687 42.4447 104.474 42.8026 105.12C42.9848 105.448 43.9836 105.378 44.4339 105.406Z" fill="#88BE49"/>
<path d="M30.6408 32.9072C28.606 29.7593 26.6766 26.5539 24.4107 23.5679C25.553 23.149 26.9359 21.19 27.9936 20.5728C28.6617 20.183 29.3047 19.5617 30.1252 19.9119C32.2319 20.811 33.1503 23.6344 33.7226 25.7116C34.324 27.8942 34.909 30.0976 35.1119 32.3655C35.1705 33.0205 35.0718 33.6575 34.9919 34.3066C34.9477 34.6655 34.552 34.6839 34.2584 34.7849C33.8447 34.9273 32.758 36.0348 32.4348 35.5233C31.8695 34.629 31.2159 33.7969 30.6408 32.9072Z" fill="#88BE49"/>
<path d="M17.6186 51.7976C15.1006 51.1483 12.6269 50.4257 10.0255 49.955C10.5863 49.2577 10.6987 47.7086 11.1284 46.9519C11.3997 46.4741 11.565 45.8942 12.2217 45.7096C13.908 45.2358 15.5918 46.21 16.765 46.9712C17.9978 47.7714 19.4188 47.1192 20.4323 48.1329C20.7249 48.4255 20.7203 50.2469 20.9229 50.5963C21.0349 50.7899 20.7912 50.9698 20.6445 51.1458C20.4378 51.3938 20.181 52.4009 19.7766 52.2925C19.0693 52.1027 18.3303 51.9809 17.6186 51.7976Z" fill="#88BE49"/>
<path d="M18.7044 77.3062C14.8333 78.5309 10.9565 79.6224 7.13101 81.1517C7.26218 79.7689 6.06468 77.6336 5.9718 76.2807C5.91317 75.4257 5.62688 74.5249 6.32915 73.739C8.13259 71.7203 11.19 71.6137 13.3921 71.6477C15.706 71.684 17.0062 69.6496 19.2175 70.1486C19.8562 70.2926 21.4316 72.6981 22.0014 72.992C22.3165 73.1543 22.1527 73.5929 22.1128 73.9462C22.0566 74.444 22.5942 75.9845 21.9686 76.1754C20.8746 76.5094 19.7984 76.9599 18.7044 77.3062Z" fill="#88BE49"/>
<path d="M61.6213 21.5426C61.2545 17.9398 61.0114 14.3262 60.3568 10.7788C61.5979 10.846 63.7888 9.62881 65.0471 9.48588C65.8417 9.39561 66.7234 9.08867 67.3065 9.71924C68.8043 11.3385 68.3055 14.2192 67.8443 16.2987C67.3593 18.4835 66.8498 20.6806 65.9608 22.7877C65.704 23.3963 65.3124 23.9279 64.9319 24.4776C64.7214 24.7815 64.3512 24.6448 64.0355 24.6217C63.5902 24.5889 62.0735 25.1592 62.0205 24.5767C61.9281 23.558 61.7253 22.5609 61.6213 21.5426Z" fill="#88BE49"/>
<path d="M90.1553 35.3222C93.3082 33.1661 96.5402 31.0983 99.4807 28.7521C100.111 29.7317 102.469 30.7644 103.305 31.6472C103.832 32.2048 104.611 32.7155 104.348 33.4879C103.676 35.4711 100.712 36.5924 98.5169 37.3247C96.21 38.0942 93.878 38.8512 91.4176 39.2725C90.7073 39.3942 89.993 39.373 89.2682 39.3699C88.8676 39.3682 88.7883 39.0154 88.6336 38.763C88.4156 38.4072 87.0369 37.5502 87.5504 37.2065C88.448 36.6053 89.2643 35.9316 90.1553 35.3222Z" fill="#88BE49"/>
<path d="M101.854 61.4588C106.319 61.3269 110.826 61.3169 115.152 60.8988C115.363 62.1146 117.423 64.3449 117.904 65.5904C118.207 66.3773 118.806 67.2633 118.148 67.7964C116.459 69.166 112.701 68.4928 109.964 67.9072C107.088 67.2924 104.191 66.652 101.316 65.6447C100.487 65.354 99.7215 64.9348 98.9364 64.5263C98.502 64.3002 98.5862 63.945 98.5402 63.6362C98.4752 63.2005 97.3932 61.6737 98.1165 61.6586C99.3813 61.6322 100.593 61.4964 101.854 61.4588Z" fill="#88BE49"/>
<path d="M87.3732 83.1569C90.9819 85.7355 94.5474 88.4363 98.2272 90.7065C97.626 91.7893 97.845 94.7802 97.4383 96.048C97.1812 96.8485 97.0939 97.9042 96.2381 97.9281C94.04 97.9898 91.4971 95.2023 89.7056 93.0976C87.8227 90.8862 85.9391 88.6422 84.3055 86.1231C83.834 85.396 83.494 84.6069 83.1323 83.8139C82.9321 83.3751 83.2228 83.1468 83.3816 82.8764C83.6053 82.4954 83.715 80.6448 84.2956 81.0675C85.3109 81.8071 86.3534 82.428 87.3732 83.1569Z" fill="#88BE49"/>
<path fill-rule="evenodd" clip-rule="evenodd" d="M53.3456 54.0133C53.0528 57.1675 52.9403 60.2823 53.1843 63.4178C53.3144 65.0895 53.4135 66.7594 53.5119 68.4148C53.5355 68.8126 53.5591 69.2097 53.5832 69.6059C53.6059 69.982 53.6261 70.3525 53.6457 70.7171C53.7529 72.7002 53.8517 74.5212 54.3295 76.2601C54.5925 77.2172 53.9509 78.1689 52.8969 78.3857C51.8429 78.602 50.775 78.0017 50.512 77.0442C49.9318 74.9331 49.8149 72.7087 49.7109 70.7367C49.6922 70.3897 49.6744 70.0507 49.6547 69.7219C49.6302 69.318 49.6061 68.9154 49.5823 68.5146C49.4842 66.8613 49.3874 65.2285 49.2597 63.5892C48.9112 59.1121 49.2439 54.7391 49.7759 50.4192C49.7809 50.3796 49.7855 50.3319 49.793 50.2573C49.7951 50.237 49.7973 50.2147 49.8001 50.1902C49.8103 50.0869 49.8242 49.9574 49.8423 49.8214C49.8733 49.5856 49.9344 49.1836 50.0859 48.8114C50.1574 48.6345 50.3114 48.304 50.6318 48.0062C51.0126 47.6522 51.6684 47.3274 52.498 47.4475C53.1812 47.5467 53.6324 47.9054 53.847 48.1023C54.0888 48.3252 54.2817 48.5781 54.4357 48.8082C54.6063 49.0636 54.7846 49.3262 54.9664 49.5941C55.4316 50.2793 55.9205 50.9998 56.3677 51.7208C56.635 52.1514 56.9483 52.573 57.3152 53.0607C57.3321 53.0834 57.349 53.1056 57.3662 53.1288C57.7002 53.5732 58.0809 54.0788 58.424 54.6151C58.4609 54.5876 58.5002 54.5569 58.5413 54.5225C58.933 54.1985 59.3028 53.7399 59.5887 53.3139C59.5859 53.3184 59.5864 53.3167 59.592 53.3077C59.6024 53.2901 59.629 53.2442 59.6795 53.1552C59.7238 53.076 59.7734 52.9865 59.8311 52.8831C59.8603 52.8301 59.8913 52.7739 59.9251 52.7136C60.1169 52.3684 60.3647 51.9273 60.6254 51.504C60.8733 51.1016 61.1842 50.6287 61.5092 50.2629C61.6555 50.0987 61.9187 49.8224 62.2867 49.6145C62.6314 49.4196 63.7126 48.9728 64.7731 49.7165C65.2765 50.0695 65.697 50.4726 66.0361 50.819C66.2231 51.0091 66.3597 51.1542 66.4845 51.2866C66.6355 51.4465 66.769 51.5876 66.9519 51.7686C67.4998 52.3098 67.825 52.4948 68.112 52.5553C68.1205 52.5558 68.1638 52.5615 68.2821 52.5772C68.4181 52.5953 68.6083 52.6223 68.8023 52.6562C68.9695 52.6852 69.243 52.7367 69.499 52.8195C69.591 52.8493 69.8939 52.9473 70.1911 53.1603C70.3408 53.2676 70.6603 53.524 70.8477 53.9633C71.0759 54.4989 71.0048 55.0633 70.7229 55.5074C70.5077 55.8461 70.224 56.0502 70.0982 56.1354C69.9485 56.2375 69.8029 56.3143 69.7178 56.3583C69.6714 56.3822 69.6267 56.4041 69.5948 56.4199L69.5856 56.4249C69.5672 56.4335 69.5536 56.4403 69.5418 56.4464C68.4037 57.2662 67.3177 58.6066 66.5169 59.9186C64.8462 62.6552 63.4105 65.5301 62.1885 68.4788C61.761 69.5111 61.269 70.5578 60.7994 71.5569C60.612 71.9559 60.4279 72.3474 60.2531 72.7271C60.0964 73.0673 59.9192 73.3968 59.7706 73.6733C59.7472 73.7164 59.7247 73.7588 59.7026 73.7994C59.5311 74.1196 59.398 74.3792 59.294 74.6351C59.267 74.7022 59.2517 74.7514 59.2221 74.8451C59.2058 74.8975 59.1851 74.9638 59.1558 75.0541C59.0893 75.2605 58.9809 75.5747 58.7832 75.9043C58.2711 76.7595 57.079 77.062 56.1209 76.5801C55.1628 76.0986 54.8014 75.0145 55.314 74.1593C55.3135 74.1605 55.3314 74.1315 55.3776 73.9879C55.389 73.9533 55.4002 73.9167 55.4144 73.8717L55.4159 73.8671C55.4287 73.8255 55.4445 73.7759 55.4607 73.7252C55.4948 73.6194 55.5389 73.4884 55.5964 73.3472C55.7714 72.9161 55.978 72.5226 56.1539 72.1943C56.1803 72.1454 56.2057 72.0981 56.2301 72.0521C56.3815 71.7702 56.5052 71.5401 56.6153 71.3011C56.8141 70.869 57.0123 70.4478 57.2076 70.0323C57.6635 69.0625 58.1033 68.1264 58.5003 67.1686C59.7807 64.0787 61.292 61.0489 63.0619 58.1499C63.6437 57.1962 64.4087 56.1345 65.3208 55.1739C64.8155 54.8373 64.406 54.4625 64.0751 54.1353C63.9794 54.0407 63.8704 53.9292 63.759 53.8142C63.6507 54.0028 63.5459 54.1899 63.4486 54.3647C63.4247 54.4082 63.3989 54.4542 63.3731 54.5014C63.2314 54.7571 63.0695 55.0498 62.9654 55.2047C62.5865 55.7702 61.9984 56.5346 61.2329 57.168C60.4987 57.7758 59.332 58.4818 57.8356 58.4091C56.6169 58.35 55.9038 57.6162 55.592 57.2197C55.4246 57.0074 55.297 56.798 55.2136 56.6562C55.1644 56.573 55.1337 56.5193 55.1107 56.4793C55.0823 56.43 55.0658 56.401 55.0407 56.3616C54.7704 55.9372 54.4592 55.5238 54.0955 55.0397L54.0759 55.013C53.8451 54.7064 53.5932 54.3705 53.3456 54.0133ZM64.6282 52.494C64.6282 52.494 64.6241 52.4988 64.616 52.5064C64.6242 52.4976 64.6282 52.494 64.6282 52.494ZM69.498 56.4687C69.498 56.4687 69.5002 56.4676 69.5059 56.4646C69.5011 56.4672 69.498 56.4687 69.498 56.4687Z" fill="#88BE49"/>
</g>
<defs>
<clipPath id="clip0_27_2100">
<rect width="110.57" height="104.639" fill="white" transform="translate(6.55664 0.298096) rotate(3.51)"/>
</clipPath>
</defs>
</svg>
