<svg width="75" height="75" viewBox="0 0 75 75" fill="none" xmlns="http://www.w3.org/2000/svg">
<path d="M25.0228 41.9085C22.3122 36.3292 23.1407 32.6373 26.4685 27.2794C28.0295 24.7663 30.2983 23.1348 32.3798 21.1433C33.6154 19.9611 35.0262 18.9813 36.6898 18.5925C38.6407 18.1365 40.6927 18.2298 42.5908 18.8395C45.8393 19.883 49.4131 20.8504 52.4741 22.3866C57.7422 25.0304 63.5551 28.4635 64.9726 34.5284C66.9424 42.9566 58.0679 48.9856 52.5269 53.451C45.4926 59.1199 37.734 61.5453 29.3118 57.0164C25.8059 55.1311 21.8359 52.9411 19.4602 49.7134C17.2915 46.7667 16.2338 43.574 15.4098 40.0485C13.4043 31.4677 18.4867 22.6492 22.849 15.6257" stroke="#3F865D" stroke-width="3" stroke-linecap="round"/>
<path d="M33.9678 50.4229V50.1084C33.9678 49.1058 34.1318 48.2035 34.46 47.4014C34.7881 46.5902 35.2119 45.8656 35.7314 45.2275C36.2601 44.5804 36.8252 44.0107 37.4268 43.5186C38.0283 43.0173 38.6025 42.5706 39.1494 42.1787C40.2979 41.3584 41.1637 40.611 41.7471 39.9365C42.3395 39.2529 42.6357 38.4873 42.6357 37.6396C42.6357 35.9443 41.7061 35.0967 39.8467 35.0967C39.1084 35.0967 38.4567 35.2152 37.8916 35.4521C37.3265 35.6891 36.8708 35.9261 36.5244 36.1631C36.3239 36.2998 36.1644 36.359 36.0459 36.3408C35.9274 36.3226 35.8044 36.1995 35.6768 35.9717L34.5146 33.9346C34.3506 33.652 34.4007 33.4196 34.665 33.2373C35.1755 32.891 35.9137 32.54 36.8799 32.1846C37.8551 31.8291 39.1221 31.6514 40.6807 31.6514C42.6768 31.6514 44.2354 32.1527 45.3564 33.1553C46.4775 34.1579 47.0381 35.5114 47.0381 37.2158C47.0381 38.4098 46.8011 39.4398 46.3271 40.3057C45.8532 41.1715 45.238 41.9372 44.4814 42.6025C43.7249 43.2679 42.9137 43.9014 42.0479 44.5029C41.1637 45.1136 40.3844 45.7197 39.71 46.3213C39.0355 46.9229 38.6982 47.4834 38.6982 48.0029H45.7803C45.999 48.0029 46.1631 48.0394 46.2725 48.1123C46.5094 48.2764 46.7555 48.4723 47.0107 48.7002C47.266 48.9281 47.5348 49.2015 47.8174 49.5205C47.9085 49.639 47.9541 49.7301 47.9541 49.7939C47.9541 49.876 47.9085 49.9671 47.8174 50.0674C47.5348 50.3864 47.266 50.6598 47.0107 50.8877C46.7555 51.1156 46.5094 51.3115 46.2725 51.4756C46.1449 51.5485 45.9808 51.585 45.7803 51.585H34.9795C34.5876 51.585 34.3187 51.4847 34.1729 51.2842C34.0361 51.0745 33.9678 50.7874 33.9678 50.4229Z" fill="#3F865D"/>
</svg>
