<svg width="20" height="23" viewBox="0 0 20 23" fill="none" xmlns="http://www.w3.org/2000/svg">
<path fill-rule="evenodd" clip-rule="evenodd" d="M14.657 4.27394C13.8141 4.27394 13.1308 5.0404 13.1308 5.98587C13.1308 6.93135 13.8141 7.69781 14.657 7.69781C15.4999 7.69781 16.1833 6.93135 16.1833 5.98587C16.1833 5.0404 15.4999 4.27394 14.657 4.27394ZM11.6045 5.98587C11.6045 4.09493 12.9712 2.56201 14.657 2.56201C16.343 2.56201 17.7096 4.09493 17.7096 5.98587C17.7096 7.87682 16.343 9.40974 14.657 9.40974C12.9712 9.40974 11.6045 7.87682 11.6045 5.98587Z" fill="white"/>
<path fill-rule="evenodd" clip-rule="evenodd" d="M5.49982 10.2656C4.65688 10.2656 3.97355 11.0321 3.97355 11.9776C3.97355 12.923 4.65688 13.6895 5.49982 13.6895C6.34276 13.6895 7.0261 12.923 7.0261 11.9776C7.0261 11.0321 6.34276 10.2656 5.49982 10.2656ZM2.44727 11.9776C2.44727 10.0866 3.81395 8.55371 5.49982 8.55371C7.1857 8.55371 8.55237 10.0866 8.55237 11.9776C8.55237 13.8686 7.1857 15.4015 5.49982 15.4015C3.81395 15.4015 2.44727 13.8686 2.44727 11.9776Z" fill="white"/>
<path fill-rule="evenodd" clip-rule="evenodd" d="M14.657 16.2576C13.8141 16.2576 13.1308 17.0241 13.1308 17.9695C13.1308 18.915 13.8141 19.6814 14.657 19.6814C15.4999 19.6814 16.1833 18.915 16.1833 17.9695C16.1833 17.0241 15.4999 16.2576 14.657 16.2576ZM11.6045 17.9695C11.6045 16.0785 12.9712 14.5457 14.657 14.5457C16.343 14.5457 17.7096 16.0785 17.7096 17.9695C17.7096 19.8605 16.343 21.3934 14.657 21.3934C12.9712 21.3934 11.6045 19.8605 11.6045 17.9695Z" fill="white"/>
<path fill-rule="evenodd" clip-rule="evenodd" d="M7.12637 13.1422C7.33857 12.7338 7.80579 12.5956 8.16994 12.8336L12.7488 15.8294C13.113 16.0675 13.2361 16.5915 13.0239 16.9999C12.8117 17.4085 12.3445 17.5466 11.9803 17.3085L7.4015 14.3127C7.03735 14.0747 6.91416 13.5506 7.12637 13.1422Z" fill="white"/>
<path fill-rule="evenodd" clip-rule="evenodd" d="M13.0234 6.95519C13.2358 7.36348 13.1129 7.88763 12.7489 8.1259L8.17623 11.3164C7.81221 11.5546 7.3449 11.4168 7.13247 11.0086C6.92004 10.6002 7.04292 10.0761 7.40694 9.83784L11.9796 6.64734C12.3437 6.40906 12.8109 6.54689 13.0234 6.95519Z" fill="white"/>
</svg>
