<svg width="75" height="75" viewBox="0 0 75 75" fill="none" xmlns="http://www.w3.org/2000/svg">
<path d="M37.0313 24.7213C43.0789 23.342 46.4879 24.9836 50.9549 29.4365C53.0501 31.5251 54.1265 34.104 55.596 36.5818C56.4682 38.0526 57.1038 39.6484 57.1065 41.3568C57.1097 43.3603 56.5549 45.3382 55.532 47.0493C53.7811 49.9778 52.0309 53.2405 49.8426 55.875C46.0763 60.4091 41.418 65.2954 35.1898 65.3053C26.5344 65.3189 22.6675 55.3113 19.5702 48.9043C15.6382 40.7706 15.0294 32.6646 21.3449 25.4842C23.9739 22.4952 27.0047 19.123 30.6858 17.5384C34.0465 16.0919 37.3957 15.7833 41.0162 15.7776C49.8281 15.7636 57.2696 22.7079 63.1251 28.545" stroke="#3F865D" stroke-width="3" stroke-linecap="round"/>
<path d="M34.3486 54.5957C32.863 54.5957 31.6917 54.4727 30.835 54.2266C29.9782 53.9714 29.3493 53.7344 28.9482 53.5156C28.6748 53.3789 28.6064 53.1556 28.7432 52.8457L29.6865 50.6172C29.7868 50.3802 29.8962 50.248 30.0146 50.2207C30.1331 50.1934 30.2972 50.2298 30.5068 50.3301C30.8714 50.5033 31.359 50.6855 31.9697 50.877C32.5895 51.0592 33.3141 51.1504 34.1436 51.1504C35.1735 51.1504 35.9893 50.9362 36.5908 50.5078C37.2015 50.0794 37.5068 49.4414 37.5068 48.5938C37.5068 47.7188 37.124 47.0579 36.3584 46.6113C35.6019 46.1556 34.5583 45.9277 33.2275 45.9277H32.9131C32.6943 45.9277 32.5303 45.8913 32.4209 45.8184C32.1839 45.6634 31.9378 45.4811 31.6826 45.2715C31.4365 45.0527 31.1676 44.7884 30.876 44.4785C30.7848 44.36 30.7393 44.2689 30.7393 44.2051C30.7393 44.123 30.7848 44.0319 30.876 43.9316C31.1676 43.6217 31.4365 43.362 31.6826 43.1523C31.9378 42.9336 32.1839 42.7467 32.4209 42.5918C32.5485 42.5189 32.7126 42.4824 32.9131 42.4824H33.0908C35.6429 42.4824 36.9189 41.6576 36.9189 40.0078C36.9189 38.513 35.9938 37.7656 34.1436 37.7656C33.5055 37.7656 32.9176 37.8477 32.3799 38.0117C31.8421 38.1758 31.4092 38.3398 31.0811 38.5039C30.8714 38.6042 30.7074 38.6406 30.5889 38.6133C30.4795 38.5768 30.3747 38.4492 30.2744 38.2305L29.3584 36.1387C29.2308 35.8379 29.2992 35.61 29.5635 35.4551C29.9645 35.2454 30.6071 35.0039 31.4912 34.7305C32.3753 34.457 33.5329 34.3203 34.9639 34.3203C36.1579 34.3203 37.2334 34.5026 38.1904 34.8672C39.1475 35.2318 39.9085 35.7741 40.4736 36.4941C41.0387 37.2142 41.3213 38.112 41.3213 39.1875C41.3213 41.7487 40.0225 43.3529 37.4248 44V44.0684C38.7555 44.2415 39.8356 44.7292 40.665 45.5312C41.4945 46.3333 41.9092 47.3724 41.9092 48.6484C41.9092 49.9609 41.5811 51.0592 40.9248 51.9434C40.2777 52.8275 39.3844 53.4928 38.2451 53.9395C37.1058 54.377 35.807 54.5957 34.3486 54.5957Z" fill="#3F865D"/>
</svg>
