<svg width="2560" height="196" viewBox="0 0 2560 196" fill="none" xmlns="http://www.w3.org/2000/svg">
<path d="M2560 9.98999V154.605C2554.63 153.974 2548.72 153.613 2543.23 153.727C2540.92 153.777 2538.57 154.605 2538 154.605H2510C2509.43 154.605 2500.41 156.664 2499.24 157C2494.73 158.305 2483.67 164.727 2481.73 165.064C2478.01 165.712 2473.31 164.613 2469.47 165.974C2468.73 162.554 2463.41 163.046 2460.05 161.52C2456.44 159.88 2449.55 154.818 2445.51 154.22C2444.83 154.121 2432.33 153.883 2431.65 153.99C2427.52 154.63 2420.33 157.927 2414.64 159.084C2402.09 161.643 2399.69 161.635 2388.68 157.041C2372.52 150.307 2371.51 147.518 2349.92 144.836C2344.85 144.204 2334.85 144.442 2330.07 143.999C2326.2 143.646 2321.51 139.332 2312.59 140.226C2311.15 140.373 2310.21 141.833 2308.39 142.178C2302.39 143.302 2293.25 142.572 2287.4 143.211C2284.31 143.548 2280.09 145.607 2276.29 146.214C2270.65 147.116 2261.79 146.698 2256.32 147.789C2248.64 149.323 2238.27 153.096 2229.72 155.253C2226.31 156.114 2223.17 158.223 2219.36 158.305C2212.8 158.444 2206.92 154.195 2201.8 152.284C2194.93 149.716 2182.63 145.246 2175.08 144.155C2164.76 142.662 2152.92 147.19 2142 148.059C2132.76 148.798 2117.52 147.157 2110.33 148.273C2109.07 148.469 2088.68 155.934 2087.88 156.566C2086.17 157.911 2086.68 159.609 2086.68 161.151C2080.09 159.781 2072.93 161.225 2067.44 161.094C2056.83 160.839 2045.89 156.443 2031.65 158.067C2029.79 158.28 2023.03 160.068 2021.4 160.765C2016.27 162.947 2016.89 166.376 2013.47 168.164C2012.85 168.484 2000.65 172.364 1999.41 172.659C1992.23 174.382 1988.44 171.536 1984.81 171.716C1984.05 171.757 1984.05 173.029 1982.97 173.324C1980.01 174.144 1976.43 174.472 1973.45 175.514C1971.07 176.351 1969.33 178.598 1967.04 178.992C1964.08 179.501 1960.51 178.451 1957.25 178.574C1942.92 179.123 1928.16 184.972 1915.68 189.131C1908.72 191.452 1902.61 194.208 1895.32 195.98L1875.31 188.942C1872.43 186.12 1877.64 184.25 1877.17 182.175C1875.77 175.941 1856.89 177.122 1849.67 175.243C1842.44 173.365 1838.09 166.163 1833.67 165.375C1828.31 164.416 1820.61 167.278 1818.23 166.794C1813.63 165.129 1812.96 161.118 1810.72 159.076C1809.44 157.919 1794.52 150.389 1792.45 149.839C1787.37 148.494 1780.23 148.404 1774.89 149.429C1771.08 150.167 1769.89 152.038 1767.35 152.579C1760.79 153.974 1741.67 150.151 1733.01 152.366C1729.19 153.35 1722.79 158.534 1722.04 158.583C1721.11 158.641 1716.01 156.205 1712.85 156.434C1712.2 156.484 1702.44 159.141 1700.84 159.609C1698.96 160.158 1697.77 161.725 1695.92 162.316C1686.28 165.367 1665.87 162.947 1654 163.595C1650.25 163.8 1646.59 165.359 1643.41 165.22C1640.24 165.08 1638.47 163.325 1634.12 163.595C1630.4 163.825 1627.83 166.048 1624.44 166.753C1621.35 166.934 1616.32 161.66 1613.28 160.774C1611.19 160.167 1608.61 160.429 1606.67 159.921C1604.01 159.232 1599.93 157.41 1597.65 157.181C1591.45 156.566 1586.09 162.201 1579.43 161.947C1575.32 161.791 1573.85 159.478 1571.01 158.879C1564.17 157.435 1554.49 156.451 1547.69 155.188C1529.4 151.792 1509.33 147.748 1490.37 147.018C1487.27 146.895 1482.03 145.763 1479.28 146C1478.23 146.091 1462.65 150.742 1460.88 151.472C1457.69 152.776 1455.52 154.745 1452.57 156.213L1450.63 155.86C1445.05 149.79 1429.77 146.353 1419.03 148.707C1416.64 149.232 1405.68 153.284 1402.93 154.392C1398.08 156.344 1393.79 160.839 1387.08 160.872C1380.37 160.905 1362.24 151.193 1359.31 151.357C1358.32 151.414 1357.67 153.358 1356.41 153.842C1356 153.998 1347.79 155.967 1347.31 155.967C1346.72 155.967 1340.56 153.358 1336.55 153.055C1331.45 152.669 1327.56 153.891 1324.77 153.801C1324.01 153.777 1324.2 152.456 1323.01 152.21C1315.79 150.742 1309.84 152.817 1303.27 153.006C1286.09 153.498 1278.63 151.759 1262.76 158.337C1260.79 159.158 1256.01 162.431 1254.95 162.701C1253.64 163.029 1242.12 163.751 1240.91 163.636C1239.69 163.522 1239.53 161.84 1237.91 161.233C1236.71 160.79 1229.04 158.141 1228.52 158.075C1224.27 157.558 1197.73 162.234 1196.01 161.151C1198.12 151.226 1186.51 157.788 1177.65 158.485C1170.48 159.051 1166.57 157.755 1160.69 155.417C1150.61 151.406 1151.71 149.979 1139.01 146.648C1132.68 144.983 1130.61 144.212 1123.04 143.351C1116.01 142.555 1108.52 142.662 1102.29 142.203C1097.57 141.858 1091.24 137.01 1083.53 138.528C1081.65 138.897 1080.83 140.242 1079.07 140.57C1073.69 141.563 1063.67 140.947 1058.07 141.587C1054.73 141.965 1050.15 144.073 1045.68 144.622C1026.24 147.009 1019.37 148.699 1001.75 152.817C997.413 153.826 996.107 156.352 990 156.352C984.293 156.352 976.547 151.587 971.387 149.692C959.627 145.361 944.293 140.185 929.933 143.138C927.507 143.638 925.707 144.991 923.053 145.451C910.96 147.567 892.027 144.852 881 146.64C875.947 147.461 866.653 153.481 859.987 154.187L856.493 159.453C849.507 158.321 842.307 159.1 835.493 158.6C830.907 158.264 827.04 156.656 823.267 156.287C813.547 155.335 800.12 155.253 792.067 159.133C787.867 161.159 787.107 165.047 784.147 166.532C781.187 168.017 778.667 167.352 776.053 168.115C774.427 168.591 773.293 170.067 771.013 170.773C764.867 172.659 761.413 169.756 757.013 170.305C750.253 171.15 739.16 177.146 737.747 177.351C735.027 177.737 721.533 175.875 717.4 177.073C715.92 177.499 714.893 179 713.253 179.476C701.96 182.716 689.88 185.874 678.68 189.492C676.387 190.23 675.16 191.961 672.387 192.822C663.507 195.578 655.653 189.18 647.307 187.326C645 184.832 648.56 181.961 648.053 179.574C646.96 174.382 627.88 175.219 621.68 173.603C614.56 171.749 610.173 164.58 605.747 163.768C598.28 162.398 594.84 165.728 588.213 165.096C585.013 161.29 582.227 155.671 575.933 153.408C574.467 152.883 571.84 153.243 570.973 152.801C570.48 152.546 570.4 150.815 568.76 149.675C563.533 146.058 550.493 146.575 543.667 148.264C541.64 148.765 540.587 150.299 537.973 150.545C532.507 151.062 517.747 149.683 511.52 149.79C499.547 149.995 498.427 155.393 493.773 156.123C490.68 156.607 487.187 154.375 483.653 154.745C479.853 155.147 471.84 158.903 468.12 159.97C454.867 163.759 441.293 160.708 427.587 161.454C423.587 161.676 418.893 163.374 416.96 163.399C414.067 163.44 409.987 161.75 406.027 161.906C402.067 162.061 398.8 164.506 395.307 164.383C391.813 164.26 388.453 160.273 385.28 159.174C382.467 158.206 367.693 155.196 365.053 155.606C361.387 156.164 356.667 160.134 351.36 160.003C348.56 159.937 346.16 158.017 343.92 157.55C323.52 153.301 308.48 151.111 287.44 148.855C282.64 148.338 277.8 145.164 271.16 144.868C268 144.729 265.493 145.557 263.36 145.475C259.76 145.336 254.16 144.13 251.053 144.229C250.027 144.261 236.08 148.338 234.24 149.044C232.173 149.848 224.427 154.63 223.347 154.613C218.2 148.912 202.467 144.795 192.267 146.189C191.253 146.329 175.707 151.628 174.173 152.276C170.213 153.957 166.68 158.444 160.693 158.789C155.72 159.067 150.053 157.091 145.733 155.614C141.96 154.318 129.307 147.854 127.067 147.444C115.52 145.336 106.2 150.758 95.3867 151.39L92.5067 146.411L0 156.237V9.98999H2560Z" fill="white"/>
<path d="M2560 -0.0100098V144.605C2554.63 143.974 2548.72 143.613 2543.23 143.727C2540.92 143.777 2538.57 144.605 2538 144.605H2510C2509.43 144.605 2500.41 146.664 2499.24 147C2494.73 148.305 2483.67 154.727 2481.73 155.064C2478.01 155.712 2473.31 154.613 2469.47 155.974C2468.73 152.554 2463.41 153.046 2460.05 151.52C2456.44 149.88 2449.55 144.818 2445.51 144.22C2444.83 144.121 2432.33 143.883 2431.65 143.99C2427.52 144.63 2420.33 147.927 2414.64 149.084C2402.09 151.643 2399.69 151.635 2388.68 147.041C2372.52 140.307 2371.51 137.518 2349.92 134.836C2344.85 134.204 2334.85 134.442 2330.07 133.999C2326.2 133.646 2321.51 129.332 2312.59 130.226C2311.15 130.373 2310.21 131.833 2308.39 132.178C2302.39 133.302 2293.25 132.572 2287.4 133.211C2284.31 133.548 2280.09 135.607 2276.29 136.214C2270.65 137.116 2261.79 136.698 2256.32 137.789C2248.64 139.323 2238.27 143.096 2229.72 145.253C2226.31 146.114 2223.17 148.223 2219.36 148.305C2212.8 148.444 2206.92 144.195 2201.8 142.284C2194.93 139.716 2182.63 135.246 2175.08 134.155C2164.76 132.662 2152.92 137.19 2142 138.059C2132.76 138.798 2117.52 137.157 2110.33 138.273C2109.07 138.469 2088.68 145.934 2087.88 146.566C2086.17 147.911 2086.68 149.609 2086.68 151.151C2080.09 149.781 2072.93 151.225 2067.44 151.094C2056.83 150.839 2045.89 146.443 2031.65 148.067C2029.79 148.28 2023.03 150.068 2021.4 150.765C2016.27 152.947 2016.89 156.376 2013.47 158.164C2012.85 158.484 2000.65 162.364 1999.41 162.659C1992.23 164.382 1988.44 161.536 1984.81 161.716C1984.05 161.757 1984.05 163.029 1982.97 163.324C1980.01 164.144 1976.43 164.472 1973.45 165.514C1971.07 166.351 1969.33 168.598 1967.04 168.992C1964.08 169.501 1960.51 168.451 1957.25 168.574C1942.92 169.123 1928.16 174.972 1915.68 179.131C1908.72 181.452 1902.61 184.208 1895.32 185.98L1875.31 178.942C1872.43 176.12 1877.64 174.25 1877.17 172.175C1875.77 165.941 1856.89 167.122 1849.67 165.243C1842.44 163.365 1838.09 156.163 1833.67 155.375C1828.31 154.416 1820.61 157.278 1818.23 156.794C1813.63 155.129 1812.96 151.118 1810.72 149.076C1809.44 147.919 1794.52 140.389 1792.45 139.839C1787.37 138.494 1780.23 138.404 1774.89 139.429C1771.08 140.167 1769.89 142.038 1767.35 142.579C1760.79 143.974 1741.67 140.151 1733.01 142.366C1729.19 143.35 1722.79 148.534 1722.04 148.583C1721.11 148.641 1716.01 146.205 1712.85 146.434C1712.2 146.484 1702.44 149.141 1700.84 149.609C1698.96 150.158 1697.77 151.725 1695.92 152.316C1686.28 155.367 1665.87 152.947 1654 153.595C1650.25 153.8 1646.59 155.359 1643.41 155.22C1640.24 155.08 1638.47 153.325 1634.12 153.595C1630.4 153.825 1627.83 156.048 1624.44 156.753C1621.35 156.934 1616.32 151.66 1613.28 150.774C1611.19 150.167 1608.61 150.429 1606.67 149.921C1604.01 149.232 1599.93 147.41 1597.65 147.181C1591.45 146.566 1586.09 152.201 1579.43 151.947C1575.32 151.791 1573.85 149.478 1571.01 148.879C1564.17 147.435 1554.49 146.451 1547.69 145.188C1529.4 141.792 1509.33 137.748 1490.37 137.018C1487.27 136.895 1482.03 135.763 1479.28 136C1478.23 136.091 1462.65 140.742 1460.88 141.472C1457.69 142.776 1455.52 144.745 1452.57 146.213L1450.63 145.86C1445.05 139.79 1429.77 136.353 1419.03 138.707C1416.64 139.232 1405.68 143.284 1402.93 144.392C1398.08 146.344 1393.79 150.839 1387.08 150.872C1380.37 150.905 1362.24 141.193 1359.31 141.357C1358.32 141.414 1357.67 143.358 1356.41 143.842C1356 143.998 1347.79 145.967 1347.31 145.967C1346.72 145.967 1340.56 143.358 1336.55 143.055C1331.45 142.669 1327.56 143.891 1324.77 143.801C1324.01 143.777 1324.2 142.456 1323.01 142.21C1315.79 140.742 1309.84 142.817 1303.27 143.006C1286.09 143.498 1278.63 141.759 1262.76 148.337C1260.79 149.158 1256.01 152.431 1254.95 152.701C1253.64 153.029 1242.12 153.751 1240.91 153.636C1239.69 153.522 1239.53 151.84 1237.91 151.233C1236.71 150.79 1229.04 148.141 1228.52 148.075C1224.27 147.558 1197.73 152.234 1196.01 151.151C1198.12 141.226 1186.51 147.788 1177.65 148.485C1170.48 149.051 1166.57 147.755 1160.69 145.417C1150.61 141.406 1151.71 139.979 1139.01 136.648C1132.68 134.983 1130.61 134.212 1123.04 133.351C1116.01 132.555 1108.52 132.662 1102.29 132.203C1097.57 131.858 1091.24 127.01 1083.53 128.528C1081.65 128.897 1080.83 130.242 1079.07 130.57C1073.69 131.563 1063.67 130.947 1058.07 131.587C1054.73 131.965 1050.15 134.073 1045.68 134.622C1026.24 137.009 1019.37 138.699 1001.75 142.817C997.413 143.826 996.107 146.352 990 146.352C984.293 146.352 976.547 141.587 971.387 139.692C959.627 135.361 944.293 130.185 929.933 133.138C927.507 133.638 925.707 134.991 923.053 135.451C910.96 137.567 892.027 134.852 881 136.64C875.947 137.461 866.653 143.481 859.987 144.187L856.493 149.453C849.507 148.321 842.307 149.1 835.493 148.6C830.907 148.264 827.04 146.656 823.267 146.287C813.547 145.335 800.12 145.253 792.067 149.133C787.867 151.159 787.107 155.047 784.147 156.532C781.187 158.017 778.667 157.352 776.053 158.115C774.427 158.591 773.293 160.067 771.013 160.773C764.867 162.659 761.413 159.756 757.013 160.305C750.253 161.15 739.16 167.146 737.747 167.351C735.027 167.737 721.533 165.875 717.4 167.073C715.92 167.499 714.893 169 713.253 169.476C701.96 172.716 689.88 175.874 678.68 179.492C676.387 180.23 675.16 181.961 672.387 182.822C663.507 185.578 655.653 179.18 647.307 177.326C645 174.832 648.56 171.961 648.053 169.574C646.96 164.382 627.88 165.219 621.68 163.603C614.56 161.749 610.173 154.58 605.747 153.768C598.28 152.398 594.84 155.728 588.213 155.096C585.013 151.29 582.227 145.671 575.933 143.408C574.467 142.883 571.84 143.243 570.973 142.801C570.48 142.546 570.4 140.815 568.76 139.675C563.533 136.058 550.493 136.575 543.667 138.264C541.64 138.765 540.587 140.299 537.973 140.545C532.507 141.062 517.747 139.683 511.52 139.79C499.547 139.995 498.427 145.393 493.773 146.123C490.68 146.607 487.187 144.375 483.653 144.745C479.853 145.147 471.84 148.903 468.12 149.97C454.867 153.759 441.293 150.708 427.587 151.454C423.587 151.676 418.893 153.374 416.96 153.399C414.067 153.44 409.987 151.75 406.027 151.906C402.067 152.061 398.8 154.506 395.307 154.383C391.813 154.26 388.453 150.273 385.28 149.174C382.467 148.206 367.693 145.196 365.053 145.606C361.387 146.164 356.667 150.134 351.36 150.003C348.56 149.937 346.16 148.017 343.92 147.55C323.52 143.301 308.48 141.111 287.44 138.855C282.64 138.338 277.8 135.164 271.16 134.868C268 134.729 265.493 135.557 263.36 135.475C259.76 135.336 254.16 134.13 251.053 134.229C250.027 134.261 236.08 138.338 234.24 139.044C232.173 139.848 224.427 144.63 223.347 144.613C218.2 138.912 202.467 134.795 192.267 136.189C191.253 136.329 175.707 141.628 174.173 142.276C170.213 143.957 166.68 148.444 160.693 148.789C155.72 149.067 150.053 147.091 145.733 145.614C141.96 144.318 129.307 137.854 127.067 137.444C115.52 135.336 106.2 140.758 95.3867 141.39L92.5067 136.411L0 146.237V-0.0100098H2560Z" fill="#3F865D"/>
</svg>
